<svg width="22" height="16" viewBox="0 0 22 16" fill="none" xmlns="http://www.w3.org/2000/svg">
<path fill-rule="evenodd" clip-rule="evenodd" d="M14.53 4.36L15.94 2.91C17.21 4.21 17.99 6.02 17.99 8C17.99 9.98 17.21 11.78 15.94 13.09L14.53 11.64C15.43 10.71 15.99 9.42 15.99 8C15.99 6.58 15.43 5.3 14.53 4.36ZM17.36 1.45L18.77 0C20.77 2.05 22 4.88 22 8.01C22 11.13 20.77 13.96 18.76 16L17.36 14.55C18.99 12.89 20 10.58 20 8.01C20 5.44 18.98 3.13 17.36 1.45ZM4.01 8C4.01 6.01 4.79 4.21 6.06 2.91L7.47 4.36C6.57 5.29 6.01 6.58 6.01 8C6.01 9.42 6.57 10.7 7.47 11.64L6.06 13.09C4.79 11.79 4.01 9.99 4.01 8ZM3.24 0L4.64 1.45C3.01 3.11 2 5.42 2 7.99C2 10.56 3.02 12.87 4.64 14.55L3.23 16C1.23 13.95 0 11.12 0 7.99C0 4.87 1.23 2.04 3.24 0ZM14 8C14 9.65685 12.6569 11 11 11C9.34315 11 8 9.65685 8 8C8 6.34315 9.34315 5 11 5C12.6569 5 14 6.34315 14 8Z" fill="#606060"/>
</svg>
