<svg width="20" height="15" viewBox="0 0 20 15" fill="none" xmlns="http://www.w3.org/2000/svg">
<path d="M19.78 3.00056C19.78 3.00056 19.58 1.63056 18.98 1.03056C18.23 0.230556 17.38 0.230555 16.98 0.180555C14.2 -0.0194446 10 0.000555568 10 0.000555568C10 0.000555568 5.82 -0.0194446 3.03 0.180555C2.63 0.230555 1.79 0.230556 1.03 1.03056C0.43 1.63056 0.23 3.00056 0.23 3.00056C0.23 3.00056 0.03 4.63056 0 6.23056V7.93056C0.03 9.53056 0.23 11.1306 0.23 11.1306C0.23 11.1306 0.43 12.5306 1.03 13.1306C1.79 13.9306 2.78 13.8906 3.23 13.9806C4.8 14.1306 9.83 14.1606 10 14.1606C10 14.1606 14.2 14.1606 17 13.9606C17.38 13.9206 18.23 13.9206 19 13.1206C19.6 12.5206 19.8 11.1406 19.8 11.1406C19.8 11.1406 20 9.54056 20 7.92056V6.22056C19.98 4.62056 19.78 3.00056 19.78 3.00056ZM7.98 10.0006V4.16056L13.33 7.19056L7.97 10.0006H7.98Z" fill="#606060"/>
</svg>
