<svg width="20" height="20" viewBox="0 0 20 20" fill="none" xmlns="http://www.w3.org/2000/svg">
<path d="M17.2044 10.98C17.2444 10.66 17.2744 10.34 17.2744 10C17.2744 9.66 17.2444 9.34 17.2044 9.02L19.3044 7.37C19.5044 7.22 19.5544 6.95 19.4344 6.73L17.4344 3.27C17.3144 3.05 17.0344 2.97 16.8344 3.05L14.3344 4.05C13.8144 3.65 13.2544 3.32 12.6344 3.07L12.2644 0.42C12.2044 0.18 11.9944 0 11.7644 0H7.76444C7.49444 0 7.28444 0.18 7.26444 0.42L6.86444 3.07C6.26444 3.32 5.69444 3.67 5.16444 4.05L2.68444 3.05C2.45444 2.95 2.18444 3.05 2.08444 3.27L0.0844372 6.73C-0.0555628 6.95 0.00443737 7.23 0.184437 7.37L2.30444 9.02C2.26444 9.34 2.23444 9.67 2.23444 10C2.23444 10.33 2.25444 10.66 2.29444 10.98L0.194437 12.63C-0.00556263 12.78 -0.0555627 13.05 0.0644373 13.27L2.06444 16.73C2.18444 16.95 2.46444 17.03 2.66444 16.95L5.16444 15.95C5.68444 16.35 6.24444 16.68 6.86444 16.93L7.23444 19.58C7.27444 19.82 7.48444 20 7.73444 20H11.7344C11.9844 20 12.1944 19.82 12.2344 19.58L12.6044 16.93C13.2044 16.68 13.7744 16.33 14.3044 15.95L16.7844 16.95C17.0144 17.05 17.2844 16.95 17.3844 16.73L19.3844 13.27C19.5144 13.05 19.4644 12.77 19.2844 12.63L17.1644 10.98H17.2044ZM9.77444 13.5C7.84444 13.5 6.27444 11.93 6.27444 10C6.27444 8.07 7.84444 6.5 9.77444 6.5C11.7044 6.5 13.2744 8.07 13.2744 10C13.2744 11.93 11.7044 13.5 9.77444 13.5Z" fill="#606060"/>
</svg>
