<svg width="17" height="17" viewBox="0 0 17 17" fill="none" xmlns="http://www.w3.org/2000/svg">
<path fill-rule="evenodd" clip-rule="evenodd" d="M14.6028 14.6028V1.80278H1.80278V14.6028H14.6028ZM1.80278 0.00278302H14.6028C14.8474 -0.0108303 15.0923 0.0256523 15.3224 0.109996C15.5524 0.194339 15.7628 0.324766 15.9407 0.493288C16.1186 0.66181 16.2602 0.864876 16.3569 1.09005C16.4535 1.31522 16.5032 1.55775 16.5028 1.80278V14.6028C16.5173 14.8561 16.4781 15.1096 16.3877 15.3467C16.2974 15.5838 16.1579 15.7991 15.9785 15.9785C15.7991 16.1579 15.5838 16.2974 15.3467 16.3877C15.1096 16.4781 14.8561 16.5173 14.6028 16.5028H1.80278C1.55775 16.5032 1.31522 16.4535 1.09005 16.3569C0.864876 16.2602 0.661809 16.1186 0.493287 15.9407C0.324766 15.7628 0.194338 15.5524 0.109995 15.3224C0.0256516 15.0923 -0.0108311 14.8474 0.00278228 14.6028V1.80278C0.00278228 1.32539 0.192424 0.867556 0.52999 0.529991C0.867555 0.192425 1.32539 0.00278302 1.80278 0.00278302ZM6.40283 11.7028V5.30276L11.4028 8.50276L6.40283 11.7028Z" fill="#606060"/>
</svg>
